# Blender 4.3.2
# www.blender.org
o Cone
v 0.300000 -0.000000 -0.060332
v 0.300000 -0.052249 -0.030166
v 0.300000 -0.052249 0.030166
v 0.300000 0.000000 0.060332
v 0.300000 0.052249 0.030166
v 0.300000 0.052249 -0.030166
v 0.500000 0.000000 0.000000
v 0.000000 -0.000000 -0.020088
v 0.300000 -0.000000 -0.020088
v 0.000000 -0.017397 -0.010044
v 0.300000 -0.017397 -0.010044
v 0.000000 -0.017397 0.010044
v 0.300000 -0.017397 0.010044
v 0.000000 0.000000 0.020088
v 0.300000 0.000000 0.020088
v 0.000000 0.017397 0.010044
v 0.300000 0.017397 0.010044
v 0.000000 0.017397 -0.010044
v 0.300000 0.017397 -0.010044
vn 0.2888 -0.0000 -0.9574
vn 1.0000 -0.0000 -0.0000
vn 0.2888 -0.8291 -0.4787
vn 0.2888 -0.8291 0.4787
vn 0.2888 -0.0000 0.9574
vn 0.2888 0.8291 0.4787
vn -1.0000 -0.0000 -0.0000
vn 0.2888 0.8291 -0.4787
vn -0.0000 -0.0000 -1.0000
vn -0.0000 -0.8660 -0.5000
vn -0.0000 -0.8660 0.5000
vn -0.0000 -0.0000 1.0000
vn -0.0000 0.8660 0.5000
vn -0.0000 0.8660 -0.5000
vt 0.250000 0.490000
vt 0.250000 0.250000
vt 0.457846 0.370000
vt 0.457846 0.130000
vt 0.250000 0.010000
vt 0.042154 0.130000
vt 0.957846 0.370000
vt 0.750000 0.010000
vt 0.542154 0.370000
vt 0.042154 0.370000
vt 1.000000 1.000000
vt 0.833333 0.500000
vt 1.000000 0.500000
vt 0.833333 1.000000
vt 0.666667 0.500000
vt 0.666667 1.000000
vt 0.500000 0.500000
vt 0.500000 1.000000
vt 0.333333 0.500000
vt 0.333333 1.000000
vt 0.166667 0.500000
vt 0.166667 1.000000
vt -0.000000 0.500000
vt 0.750000 0.490000
vt 0.957846 0.130000
vt 0.542154 0.130000
vt -0.000000 1.000000
s 1
f 1/1/1 7/2/2 2/3/3
f 2/3/3 7/2/2 3/4/4
f 3/4/4 7/2/2 4/5/5
f 4/5/5 7/2/2 5/6/6
f 2/7/7 4/8/7 6/9/7
f 5/6/6 7/2/2 6/10/8
f 6/10/8 7/2/2 1/1/1
f 9/11/9 10/12/10 8/13/9
f 11/14/10 12/15/11 10/12/10
f 13/16/11 14/17/12 12/15/11
f 15/18/12 16/19/13 14/17/12
f 17/20/13 18/21/14 16/19/13
f 19/22/14 8/23/9 18/21/14
f 10/7/7 14/8/7 18/9/7
f 6/9/7 1/24/7 2/7/7
f 2/7/7 3/25/7 4/8/7
f 4/8/7 5/26/7 6/9/7
f 9/11/9 11/14/10 10/12/10
f 11/14/10 13/16/11 12/15/11
f 13/16/11 15/18/12 14/17/12
f 15/18/12 17/20/13 16/19/13
f 17/20/13 19/22/14 18/21/14
f 19/22/14 9/27/9 8/23/9
f 18/9/7 8/24/7 10/7/7
f 10/7/7 12/25/7 14/8/7
f 14/8/7 16/26/7 18/9/7
